# xmcd
#
# Track frame offsets: 
#        150
#        2045
#        17037
#        31557
#        41763
#        46595
#        50202
#        65318
#        75295
#        86827
#        89433
#        108959
#        125125
#        141924
#        154056
#        167371
#
# Disc length: 2457 seconds
#
# Revision: 0
# Processed by: cddbd v1.5.2PL0 Copyright (c) Steve Scherf et al.
# Submitted via: ExactAudioCopy v1.0b4
#
DISCID=c0099710
DTITLE=Mighty Mo Rodgers - Mud 'N Blood: A Mississippi Blues Tale
DYEAR=2014
DGENRE=Blues
TTITLE0=Goin' South
TTITLE1=Haunted By The Blues
TTITLE2=The Ghost Of Higway 61
TTITLE3=Unmarked Grave
TTITLE4=Run Brother Run
TTITLE5=Backroad Blues
TTITLE6=Devil Train Boogie
TTITLE7=I Got A Call From The Devil
TTITLE8=The People Could Fly
TTITLE9=Drivin' Up
TTITLE10=Juke Joint Jumpin'
TTITLE11=White Lightnin' And High Yella
TTITLE12=Love Will Only Make U Sweat
TTITLE13=Everybody Needs The Blues
TTITLE14=Thank You Mississippi
TTITLE15=Almost Home
EXTD=
EXTT0=
EXTT1=
EXTT2=
EXTT3=
EXTT4=
EXTT5=
EXTT6=
EXTT7=
EXTT8=
EXTT9=
EXTT10=
EXTT11=
EXTT12=
EXTT13=
EXTT14=
EXTT15=
PLAYORDER=
